<svg width="177" height="55" viewBox="0 0 177 55" fill="none" xmlns="http://www.w3.org/2000/svg">
<path d="M92.0708 23.1794C92.0708 24.95 90.9819 26.4243 89.7516 27.1508C88.5212 27.8774 87.0222 28.216 84.0241 28.216C83.317 28.216 82.8644 28.1948 82.1149 28.1737C81.8674 28.1737 81.3159 28.1031 80.7078 28.082V28.0396V20.2097V17.9454V10.6163V10.5457C81.0967 10.5034 81.6624 10.454 82.2563 10.4329C82.9139 10.3905 83.9392 10.3905 84.7807 10.3905C85.8272 10.3905 87.0787 10.5457 88.005 10.8208C89.0727 11.1383 91.3496 12.1329 91.3496 15.1943C91.3496 16.7815 90.4162 18.3686 88.7121 18.8694V18.9118C90.4657 19.2715 92.0779 20.8587 92.0779 23.1512V23.1794H92.0708ZM87.2979 15.5823C87.2979 14.4677 86.5484 13.8611 85.3888 13.8611C85.1837 13.8611 84.7948 13.8823 84.5898 13.9034V17.3528C84.8372 17.374 85.0635 17.374 85.2474 17.374C85.5231 17.374 85.7918 17.3528 86.1807 17.2117C86.704 17.0283 87.2979 16.5063 87.2979 15.6034V15.5823ZM87.8 22.6151C87.8 21.684 87.1424 21.0491 86.4565 20.8446C86.1383 20.7529 85.6858 20.6894 85.3676 20.6894C85.2049 20.6894 84.8019 20.7105 84.5968 20.7105V24.5902C84.5968 24.6114 84.5968 24.6325 84.618 24.6325C84.8231 24.6537 85.1413 24.6537 85.4171 24.6537C85.806 24.6537 86.2797 24.5832 86.6898 24.3786C87.2343 24.1317 87.807 23.5886 87.807 22.6292V22.6151H87.8Z" fill="#013C59"/>
<path d="M112.372 19.2151C112.372 24.428 108.44 28.4206 103.073 28.4206C97.7983 28.4206 93.7537 24.428 93.7537 19.328C93.7537 14.2279 97.8195 10.2354 103.236 10.2354C108.553 10.2354 112.372 14.115 112.372 19.1939V19.2151ZM108.072 19.2786C108.072 16.3794 106.001 14.0868 103.137 14.0868C100.16 14.0868 98.0458 16.3088 98.0458 19.328C98.0458 22.2765 100.118 24.5691 103.137 24.5691C106.135 24.5691 108.072 22.2554 108.072 19.3068V19.2786Z" fill="#013C59"/>
<path d="M129.985 28.484H129.42C125.12 20.2309 124.647 19.0952 124.237 17.9877H124.215C123.805 19.1234 123.303 20.252 118.962 28.484H118.396L115.03 17.5574C113.213 11.6814 112.937 10.7573 112.874 10.5034V10.4611H115.172H117.194V10.5034C117.265 10.7503 117.625 11.6603 118.856 15.808C119.195 16.9649 119.45 17.9172 119.676 18.8271H119.747C120.157 17.8748 120.701 16.6968 121.267 15.6317C122.582 13.1134 123.565 11.4627 124.06 10.5739H124.654C125.135 11.4345 126.04 12.9794 127.588 15.7657C127.998 16.5134 128.585 17.7831 128.995 18.7566H129.066C129.292 17.762 129.455 17.1271 129.745 16.0549C130.975 11.5897 131.378 10.7291 131.449 10.4963V10.454H133.379H135.423V10.4963C135.352 10.7926 135.083 11.6744 133.309 17.5292L129.985 28.484Z" fill="#013C59"/>
<path d="M136.851 17.9383V10.5034V10.4611H141.808H146.284V13.974H146.241H143.491H141.058V17.4445H143.696H145.626H145.669V19.1445V20.9574H145.626H143.738H141.058V24.1529V24.6043H144.65H146.376H146.418V28.1384H142.098H136.844V28.0961V20.2097V17.9383H136.851Z" fill="#013C59"/>
<path d="M149.197 17.9383V10.5739V10.5316C149.586 10.4893 150.222 10.4399 150.809 10.4188C151.311 10.3976 152.4 10.3764 153.015 10.3764C154.472 10.3764 155.603 10.5105 156.629 10.7856C158.149 11.1947 160.242 12.4856 160.242 15.7516C160.242 17.6985 159.308 19.1093 158.608 19.6736C158.198 20.0334 157.725 20.379 157.428 20.4919V20.5624C157.59 20.7881 157.88 21.2678 161.246 26.2056C161.72 26.911 162.427 27.9268 162.54 28.1102V28.1525H160.199H158.517H157.809C156.537 26.1139 155.038 23.6873 153.581 21.3524H153.171V22.467V28.1102V28.1525H151.191H149.197V28.1102V20.2097V17.9383ZM156.176 16.062C156.176 14.6794 155.335 13.8611 153.97 13.8611C153.581 13.8611 153.376 13.8823 153.171 13.9034V18.418C153.334 18.4391 153.56 18.4391 153.765 18.4391C154.359 18.4391 154.882 18.2557 155.264 17.9877C155.674 17.7126 156.176 17.0566 156.176 16.0831V16.062Z" fill="#013C59"/>
<path d="M171.131 20.64V21.162V28.1031V28.1455H169.088H166.931V28.0749V21.2325V20.8728L165.248 17.9454C161.656 11.7096 161.09 10.7574 160.949 10.5105V10.4681H163.565H165.679V10.5105C165.793 10.715 166.358 11.7096 167.2 13.2121C167.878 14.4395 168.586 15.681 169.017 16.6122H169.059C169.491 15.681 170.148 14.5453 170.877 13.3038C171.81 11.7167 172.425 10.6515 172.51 10.5175V10.4752H174.985H176.986V10.5457C176.873 10.7715 176.328 11.7026 172.687 17.9595L171.131 20.64Z" fill="#013C59"/>
<path d="M80.8917 39.0797C80.8917 33.9867 84.6817 31.1651 89.1647 31.1651C89.9425 31.1651 90.5011 31.2215 90.8405 31.2638C91.3213 31.3203 91.9153 31.4402 92.2547 31.5248C92.2335 31.8846 92.2335 32.4983 92.2122 32.6182H92.1486C91.887 32.5406 91.5688 32.456 91.2506 32.3995C90.7132 32.3008 90.0344 32.2232 89.2354 32.2232C84.8867 32.2232 82.1149 34.8261 82.1149 39.1431C82.1149 43.2838 85.1625 46.0843 89.0727 46.0843C89.8718 46.0843 90.5859 46.0067 91.1657 45.8868C91.5051 45.8092 91.7668 45.7104 92.0425 45.6117H92.0638C92.085 46.0067 92.085 46.3664 92.1062 46.6839C91.7243 46.8038 91.2294 46.9237 90.7273 47.0013C90.1687 47.0789 89.4687 47.1424 88.896 47.1424C84.7312 47.1424 80.8775 44.2996 80.8775 39.1079V39.0797H80.8917Z" fill="#013C59"/>
<path d="M100.535 41.7032C98.8377 45.8439 98.463 46.7539 98.4205 46.8738V46.9161H97.9044H97.2468V46.8738C97.2892 46.775 97.7064 45.858 100.118 39.9115L103.688 31.1363H103.809L107.259 39.9468C109.571 45.8369 109.932 46.7327 109.974 46.8667V46.9091H109.338H108.779V46.8667C108.737 46.7468 108.384 45.8298 106.729 41.6962H100.535V41.7032ZM106.319 40.7086L106.298 40.631C104.247 35.277 103.985 34.6069 103.724 33.7675H103.681C103.406 34.5998 103.102 35.2982 100.966 40.631L100.945 40.7086H106.319Z" fill="#013C59"/>
<path d="M115.751 37.9646V31.4961V31.4608C115.928 31.4397 116.147 31.4185 116.529 31.4044C117.024 31.3832 117.668 31.3621 117.887 31.3621C118.785 31.3621 119.803 31.5031 120.482 31.7571C122.038 32.3355 123.232 33.7675 123.232 35.8978C123.232 36.6314 123.035 37.4285 122.773 37.9646C122.532 38.4584 122.158 38.9381 121.797 39.2555C121.281 39.714 120.623 40.109 119.846 40.3277C118.969 40.5887 117.929 40.5887 116.876 40.5887V41.026V46.8738V46.9161H116.338H115.759V46.8738V39.9538V37.9646H115.751ZM122.03 35.8555C122.03 34.3812 121.253 33.2666 119.994 32.7305C119.457 32.4907 118.601 32.3919 117.724 32.3919C117.505 32.3919 117.109 32.4131 116.869 32.4343V39.5588C117.031 39.5588 117.385 39.58 117.625 39.58C118.339 39.58 119.004 39.5235 119.577 39.3401C120.135 39.1638 120.772 38.7617 121.154 38.3455C121.712 37.7318 122.03 36.9911 122.03 35.8766V35.8555Z" fill="#013C59"/>
<path d="M130.982 39.9538V46.8738V46.9161H130.402H129.865V46.8597V39.9538V37.9646V31.482V31.4044H130.402H130.982V31.4608V37.9646V39.9538Z" fill="#013C59"/>
<path d="M141.652 32.4131H138.103H136.886H136.788V31.3973H141.532H142.89H147.656V32.4131H147.557H146.241H142.77V39.9538V46.8738V46.9161H142.232H141.652V46.8597V39.9538V32.4131Z" fill="#013C59"/>
<path d="M153.263 41.7032C151.566 45.8439 151.191 46.7539 151.149 46.8738V46.9161H150.632H149.975V46.8738C150.017 46.775 150.434 45.858 152.846 39.9115L156.416 31.1363H156.537L159.987 39.9468C162.299 45.8369 162.66 46.7327 162.703 46.8667V46.9091H162.066H161.508V46.8667C161.465 46.7468 161.112 45.8298 159.457 41.6962H153.263V41.7032ZM159.04 40.7086L159.019 40.631C156.968 35.277 156.706 34.6069 156.445 33.7675H156.402C156.127 34.5998 155.823 35.2982 153.687 40.631L153.666 40.7086H159.04Z" fill="#013C59"/>
<path d="M168.472 37.9646V31.482V31.4044H169.01H169.59V31.482V37.9646V39.9538V45.7452C169.59 45.8439 169.611 45.8651 169.667 45.8651H173.896H174.73H175.211H175.268V46.9161H172.036H168.465V46.8174V39.9538V37.9646H168.472Z" fill="#013C59"/>
<path d="M68.1498 0H0V55H68.1498V0Z" fill="#013C59"/>
<path d="M11.6388 24.1458C11.6388 19.2715 11.6388 16.7815 11.4903 14.0022C11.4408 12.7325 11.2004 11.759 9.39022 11.759C8.46393 11.759 7.58006 11.759 6.70326 11.9071V10.1507C8.75384 10.2495 12.0843 10.3976 14.9197 10.3976C17.6562 10.3976 20.8876 10.1507 24.1119 10.1507C26.9969 10.1507 36.3871 10.1507 36.3871 19.0317C36.3871 25.3238 30.1293 26.7417 28.3192 26.784V26.8828C33.8911 28.1031 37.4619 30.445 37.4619 36.5397C37.4548 44.9269 29.9313 45.851 24.7908 45.851C20.9795 45.851 17.1117 45.6041 13.9863 45.6041C10.9529 45.6041 8.36494 45.7522 6.70326 45.851V44.0945C7.29015 44.2426 7.97603 44.2427 8.80333 44.2427C11.3913 44.2427 11.3913 42.8742 11.4903 40.8779C11.5893 38.536 11.6388 34.8749 11.6388 31.4608V24.1458ZM18.1936 26.2902C23.1291 26.2902 29.0475 25.9516 29.0475 18.9259C29.0475 14.3408 26.014 11.6109 21.7644 11.6109C18.2431 11.6109 18.1936 12.6337 18.1936 19.9487V26.2902ZM18.1936 36.0953C18.1936 44.2426 18.9289 44.2427 22.0048 44.2427C26.4524 44.2427 29.7758 42.3381 29.7758 36.4409C29.7758 27.6587 21.9553 27.6587 18.1865 27.6587V36.0953H18.1936Z" fill="white"/>
<path d="M59.6081 9.1702L61.9557 10.4893L42.1004 46.9232L39.7529 45.6041L59.6081 9.1702Z" fill="white"/>
</svg>
