<svg width="177" height="55" viewBox="0 0 177 55" fill="none" xmlns="http://www.w3.org/2000/svg">
<path d="M92.0708 23.1795C92.0708 24.9501 90.9819 26.4244 89.7516 27.1509C88.5212 27.8775 87.0222 28.2161 84.0241 28.2161C83.317 28.2161 82.8644 28.1949 82.1149 28.1737C81.8674 28.1737 81.3159 28.1032 80.7078 28.082V28.0397V20.2098V17.9455V10.6164V10.5458C81.0967 10.5035 81.6624 10.4541 82.2563 10.4329C82.9139 10.3906 83.9392 10.3906 84.7807 10.3906C85.8272 10.3906 87.0787 10.5458 88.005 10.8209C89.0727 11.1383 91.3496 12.133 91.3496 15.1944C91.3496 16.7815 90.4162 18.3687 88.7121 18.8695V18.9118C90.4657 19.2716 92.0779 20.8588 92.0779 23.1513V23.1795H92.0708ZM87.2979 15.5824C87.2979 14.4678 86.5484 13.8612 85.3888 13.8612C85.1837 13.8612 84.7948 13.8824 84.5898 13.9035V17.3529C84.8372 17.3741 85.0635 17.3741 85.2474 17.3741C85.5231 17.3741 85.7918 17.3529 86.1807 17.2118C86.704 17.0284 87.2979 16.5064 87.2979 15.6035V15.5824ZM87.8 22.6152C87.8 21.6841 87.1424 21.0492 86.4565 20.8446C86.1383 20.7529 85.6858 20.6895 85.3676 20.6895C85.2049 20.6895 84.8019 20.7106 84.5968 20.7106V24.5903C84.5968 24.6115 84.5968 24.6326 84.618 24.6326C84.8231 24.6538 85.1413 24.6538 85.4171 24.6538C85.806 24.6538 86.2797 24.5833 86.6898 24.3787C87.2343 24.1318 87.807 23.5887 87.807 22.6293V22.6152H87.8Z" fill="white"/>
<path d="M112.372 19.2151C112.372 24.428 108.44 28.4206 103.073 28.4206C97.7983 28.4206 93.7537 24.428 93.7537 19.328C93.7537 14.2279 97.8195 10.2354 103.236 10.2354C108.553 10.2354 112.372 14.115 112.372 19.1939V19.2151ZM108.072 19.2786C108.072 16.3794 106.001 14.0868 103.137 14.0868C100.16 14.0868 98.0458 16.3088 98.0458 19.328C98.0458 22.2765 100.118 24.5691 103.137 24.5691C106.135 24.5691 108.072 22.2554 108.072 19.3068V19.2786Z" fill="white"/>
<path d="M129.985 28.4841H129.42C125.12 20.2309 124.647 19.0952 124.237 17.9878H124.215C123.805 19.1235 123.303 20.2521 118.962 28.4841H118.396L115.03 17.5575C113.213 11.6815 112.937 10.7574 112.874 10.5035V10.4612H115.172H117.194V10.5035C117.265 10.7504 117.625 11.6603 118.856 15.8081C119.195 16.9649 119.45 17.9172 119.676 18.8272H119.747C120.157 17.8749 120.701 16.6969 121.267 15.6317C122.582 13.1135 123.565 11.4628 124.06 10.574H124.654C125.135 11.4346 126.04 12.9794 127.588 15.7658C127.998 16.5135 128.585 17.7832 128.995 18.7567H129.066C129.292 17.762 129.455 17.1272 129.745 16.055C130.975 11.5898 131.378 10.7292 131.449 10.4964V10.4541H133.379H135.423V10.4964C135.352 10.7927 135.083 11.6744 133.309 17.5293L129.985 28.4841Z" fill="white"/>
<path d="M136.851 17.9382V10.5033V10.4609H141.808H146.284V13.9738H146.241H143.491H141.058V17.4444H143.696H145.626H145.669V19.1444V20.9573H145.626H143.738H141.058V24.1527V24.6042H144.65H146.376H146.418V28.1382H142.098H136.844V28.0959V20.2096V17.9382H136.851Z" fill="white"/>
<path d="M149.197 17.9383V10.574V10.5317C149.586 10.4893 150.222 10.44 150.809 10.4188C151.311 10.3976 152.4 10.3765 153.015 10.3765C154.472 10.3765 155.603 10.5105 156.629 10.7856C158.149 11.1947 160.242 12.4856 160.242 15.7516C160.242 17.6985 159.308 19.1093 158.608 19.6736C158.198 20.0334 157.725 20.379 157.428 20.4919V20.5624C157.59 20.7882 157.88 21.2678 161.246 26.2056C161.72 26.911 162.427 27.9268 162.54 28.1102V28.1525H160.199H158.517H157.809C156.537 26.1139 155.038 23.6874 153.581 21.3525H153.171V22.467V28.1102V28.1525H151.191H149.197V28.1102V20.2097V17.9383ZM156.176 16.062C156.176 14.6794 155.335 13.8611 153.97 13.8611C153.581 13.8611 153.376 13.8823 153.171 13.9035V18.418C153.334 18.4392 153.56 18.4392 153.765 18.4392C154.359 18.4392 154.882 18.2558 155.264 17.9877C155.674 17.7126 156.176 17.0566 156.176 16.0831V16.062Z" fill="white"/>
<path d="M171.131 20.6401V21.1621V28.1032V28.1456H169.088H166.931V28.075V21.2327V20.8729L165.248 17.9455C161.656 11.7098 161.09 10.7575 160.949 10.5106V10.4683H163.565H165.679V10.5106C165.793 10.7152 166.358 11.7098 167.2 13.2123C167.878 14.4397 168.586 15.6812 169.017 16.6123H169.059C169.491 15.6812 170.148 14.5455 170.877 13.304C171.81 11.7168 172.425 10.6517 172.51 10.5176V10.4753H174.985H176.986V10.5459C176.873 10.7716 176.328 11.7027 172.687 17.9596L171.131 20.6401Z" fill="white"/>
<path d="M80.8917 39.0796C80.8917 33.9866 84.6817 31.165 89.1647 31.165C89.9425 31.165 90.5011 31.2215 90.8405 31.2638C91.3213 31.3202 91.9153 31.4401 92.2547 31.5248C92.2335 31.8845 92.2335 32.4982 92.2122 32.6182H92.1486C91.887 32.5406 91.5688 32.4559 91.2506 32.3995C90.7132 32.3007 90.0344 32.2231 89.2354 32.2231C84.8867 32.2231 82.1149 34.8261 82.1149 39.1431C82.1149 43.2838 85.1625 46.0842 89.0727 46.0842C89.8718 46.0842 90.5859 46.0066 91.1657 45.8867C91.5051 45.8091 91.7668 45.7104 92.0425 45.6116H92.0638C92.085 46.0066 92.085 46.3664 92.1062 46.6838C91.7243 46.8037 91.2294 46.9237 90.7273 47.0013C90.1687 47.0788 89.4687 47.1423 88.896 47.1423C84.7312 47.1423 80.8775 44.2996 80.8775 39.1078V39.0796H80.8917Z" fill="white"/>
<path d="M100.535 41.7031C98.8377 45.8438 98.463 46.7538 98.4205 46.8737V46.916H97.9044H97.2468V46.8737C97.2892 46.7749 97.7064 45.8579 100.118 39.9114L103.688 31.1362H103.809L107.259 39.9467C109.571 45.8368 109.932 46.7326 109.974 46.8666V46.909H109.338H108.779V46.8666C108.737 46.7467 108.384 45.8297 106.729 41.6961H100.535V41.7031ZM106.319 40.7085L106.298 40.6309C104.247 35.2769 103.985 34.6068 103.724 33.7674H103.681C103.406 34.5997 103.102 35.2981 100.966 40.6309L100.945 40.7085H106.319Z" fill="white"/>
<path d="M115.751 37.9648V31.4963V31.4611C115.928 31.4399 116.147 31.4187 116.529 31.4046C117.024 31.3835 117.668 31.3623 117.887 31.3623C118.785 31.3623 119.803 31.5034 120.482 31.7573C122.038 32.3358 123.232 33.7677 123.232 35.898C123.232 36.6316 123.035 37.4287 122.773 37.9648C122.532 38.4586 122.158 38.9383 121.797 39.2557C121.281 39.7142 120.623 40.1093 119.846 40.3279C118.969 40.5889 117.929 40.5889 116.876 40.5889V41.0263V46.874V46.9164H116.338H115.759V46.874V39.9541V37.9648H115.751ZM122.03 35.8557C122.03 34.3814 121.253 33.2669 119.994 32.7308C119.457 32.4909 118.601 32.3922 117.724 32.3922C117.505 32.3922 117.109 32.4134 116.869 32.4345V39.559C117.031 39.559 117.385 39.5802 117.625 39.5802C118.339 39.5802 119.004 39.5238 119.577 39.3404C120.135 39.164 120.772 38.7619 121.154 38.3458C121.712 37.7321 122.03 36.9914 122.03 35.8769V35.8557Z" fill="white"/>
<path d="M130.982 39.9537V46.8737V46.916H130.402H129.865V46.8596V39.9537V37.9645V31.4819V31.4043H130.402H130.982V31.4607V37.9645V39.9537Z" fill="white"/>
<path d="M141.652 32.4132H138.103H136.886H136.788V31.3975H141.532H142.89H147.656V32.4132H147.557H146.241H142.77V39.954V46.8739V46.9162H142.232H141.652V46.8598V39.954V32.4132Z" fill="white"/>
<path d="M153.263 41.7031C151.566 45.8438 151.191 46.7538 151.149 46.8737V46.916H150.632H149.975V46.8737C150.017 46.7749 150.434 45.8579 152.846 39.9114L156.416 31.1362H156.537L159.987 39.9467C162.299 45.8368 162.66 46.7326 162.703 46.8666V46.909H162.066H161.508V46.8666C161.465 46.7467 161.112 45.8297 159.457 41.6961H153.263V41.7031ZM159.04 40.7085L159.019 40.6309C156.968 35.2769 156.706 34.6068 156.445 33.7674H156.402C156.127 34.5997 155.823 35.2981 153.687 40.6309L153.666 40.7085H159.04Z" fill="white"/>
<path d="M168.472 37.9645V31.4819V31.4043H169.01H169.59V31.4819V37.9645V39.9537V45.7451C169.59 45.8438 169.611 45.865 169.667 45.865H173.896H174.73H175.211H175.268V46.916H172.036H168.465V46.8173V39.9537V37.9645H168.472Z" fill="white"/>
<path d="M68.1498 0H0V55H68.1498V0Z" fill="white"/>
<path d="M11.6388 24.146C11.6388 19.2717 11.6388 16.7816 11.4903 14.0024C11.4408 12.7326 11.2004 11.7592 9.39022 11.7592C8.46393 11.7592 7.58006 11.7592 6.70326 11.9073V10.1509C8.75384 10.2496 12.0843 10.3978 14.9197 10.3978C17.6562 10.3978 20.8876 10.1509 24.1119 10.1509C26.9969 10.1509 36.3871 10.1509 36.3871 19.0319C36.3871 25.324 30.1293 26.7419 28.3192 26.7842V26.883C33.8911 28.1033 37.4619 30.4452 37.4619 36.5399C37.4548 44.9271 29.9313 45.8511 24.7908 45.8511C20.9795 45.8511 17.1117 45.6043 13.9863 45.6043C10.9529 45.6043 8.36494 45.7524 6.70326 45.8511V44.0947C7.29015 44.2428 7.97603 44.2428 8.80333 44.2428C11.3913 44.2428 11.3913 42.8744 11.4903 40.8781C11.5893 38.5362 11.6388 34.8751 11.6388 31.461V24.146ZM18.1936 26.2904C23.1291 26.2904 29.0475 25.9518 29.0475 18.926C29.0475 14.341 26.014 11.6111 21.7644 11.6111C18.2431 11.6111 18.1936 12.6339 18.1936 19.9489V26.2904ZM18.1936 36.0955C18.1936 44.2428 18.9289 44.2428 22.0048 44.2428C26.4524 44.2428 29.7758 42.3383 29.7758 36.4411C29.7758 27.6589 21.9553 27.6589 18.1865 27.6589V36.0955H18.1936Z" fill="#013C59"/>
<path d="M59.6081 9.17041L61.9557 10.4895L42.1004 46.9234L39.7529 45.6043L59.6081 9.17041Z" fill="#013C59"/>
</svg>
