<svg width="17" height="17" viewBox="0 0 17 17" fill="none" xmlns="http://www.w3.org/2000/svg">
<path d="M8.49961 16.4587C12.895 16.4587 16.4582 12.8955 16.4582 8.5001C16.4582 4.10469 12.895 0.541504 8.49961 0.541504C4.1042 0.541504 0.541016 4.10469 0.541016 8.5001C0.541016 12.8955 4.1042 16.4587 8.49961 16.4587Z" fill="#95A485" stroke="#95A485" stroke-miterlimit="10" stroke-linecap="round" stroke-linejoin="round"/>
<path d="M10.5031 6.86515V6.83267C10.5031 6.32375 10.319 5.90146 9.95083 5.57662C9.58268 5.25178 9.10624 5.08936 8.54319 5.08936C7.99096 5.08936 7.53618 5.21929 7.16803 5.47916C6.76739 5.76069 6.57249 6.1505 6.57249 6.62694C6.57249 7.10337 6.74573 7.48235 7.09223 7.73139C7.39542 7.94795 7.82854 8.14286 8.43491 8.30528L8.46739 8.31611C9.06293 8.47853 9.51771 8.6626 9.83172 8.90082C10.1999 9.17152 10.384 9.56133 10.384 10.0486C10.384 10.5467 10.1782 10.9473 9.76675 11.2397C9.38777 11.4995 8.92217 11.6403 8.36994 11.6403C7.80688 11.6403 7.31962 11.4995 6.90815 11.2397C6.45338 10.9581 6.23682 10.5034 6.23682 9.90783V9.85369" fill="#95A485"/>
<path d="M10.5031 6.86515V6.83267C10.5031 6.32375 10.319 5.90146 9.95083 5.57662C9.58268 5.25178 9.10624 5.08936 8.54319 5.08936C7.99096 5.08936 7.53618 5.21929 7.16803 5.47916C6.76739 5.76069 6.57249 6.1505 6.57249 6.62694C6.57249 7.10337 6.74573 7.48235 7.09223 7.73139C7.39542 7.94795 7.82854 8.14286 8.43491 8.30528L8.46739 8.31611C9.06293 8.47853 9.51771 8.6626 9.83172 8.90082C10.1999 9.17152 10.384 9.56133 10.384 10.0486C10.384 10.5467 10.1782 10.9473 9.76675 11.2397C9.38777 11.4995 8.92217 11.6403 8.36994 11.6403C7.80688 11.6403 7.31962 11.4995 6.90815 11.2397C6.45338 10.9581 6.23682 10.5034 6.23682 9.90783V9.85369" stroke="white" stroke-miterlimit="10" stroke-linecap="round" stroke-linejoin="round"/>
<path d="M8.51123 4.03906V5.01358" stroke="white" stroke-miterlimit="10" stroke-linecap="round" stroke-linejoin="round"/>
<path d="M8.51123 11.6729V12.6474" stroke="white" stroke-miterlimit="10" stroke-linecap="round" stroke-linejoin="round"/>
</svg>
