<svg width="12" height="12" viewBox="0 0 12 12" fill="none" xmlns="http://www.w3.org/2000/svg">
<path d="M11.9996 11.8001H9.70597V8.19721C9.70597 7.33691 9.68659 6.23081 8.51071 6.23081C7.31544 6.23081 7.12808 7.16227 7.12808 8.13253V11.8001H4.83447V4.38732H7.03763V5.39639H7.06993C7.38005 4.81423 8.12952 4.19973 9.24725 4.19973C11.5732 4.19973 12.006 5.73275 12.006 7.72502L11.9996 11.8001ZM2.23719 3.37824C1.50065 3.37824 0.90625 2.77668 0.90625 2.03928C0.90625 1.30188 1.50065 0.706787 2.23719 0.706787C2.97373 0.706787 3.57459 1.30188 3.57459 2.03928C3.57459 2.77668 2.97373 3.37824 2.23719 3.37824ZM3.39369 11.8001H1.08715V4.38732H3.38723V11.8001H3.39369Z" fill="white"/>
</svg>
