<svg width="27" height="26" viewBox="0 0 27 26" fill="none" xmlns="http://www.w3.org/2000/svg">
<path d="M25.6898 21.8401L18.7198 15.4601C19.7598 13.7901 20.3298 11.7901 20.2298 9.68007C19.9798 4.10007 15.2598 -0.229931 9.66982 0.0200691C4.08982 0.260069 -0.240185 4.98007 0.00981516 10.5701C0.259815 16.1601 4.97981 20.4801 10.5698 20.2301C12.6398 20.1401 14.5298 19.4301 16.0798 18.3001L23.0698 24.7001C23.6698 25.2501 24.5998 25.2101 25.1498 24.6101L25.7798 23.9201C26.3298 23.3101 26.2798 22.3801 25.6898 21.8401ZM15.6598 15.1901C14.3598 16.6101 12.5298 17.5301 10.4598 17.6201C6.31982 17.8001 2.81982 14.6001 2.62982 10.4601C2.43982 6.32007 5.64982 2.82007 9.78981 2.63007C13.9298 2.45007 17.4298 5.65007 17.6198 9.79007C17.7098 11.8601 16.9498 13.7701 15.6598 15.1901Z" fill="#CDD3DF"/>
</svg>
