<svg width="14" height="13" viewBox="0 0 14 13" fill="none" xmlns="http://www.w3.org/2000/svg">
<path d="M13.6266 1.54764C13.1232 1.8068 12.5856 1.98335 12.0196 2.06396C12.5964 1.6569 13.0401 1.01532 13.25 0.249834C12.709 0.619588 12.1094 0.888742 11.4712 1.03864C10.9615 0.399734 10.235 0 9.42837 0C7.88277 0 6.62956 1.46769 6.62956 3.27582C6.62956 3.53565 6.65515 3.78548 6.7018 4.02465C4.37514 3.89607 2.31301 2.58761 0.932939 0.609594C0.690034 1.09061 0.554075 1.64957 0.554075 2.2585C0.554075 3.39774 1.04899 4.39907 1.79875 4.98735C1.33968 4.97003 0.907909 4.82212 0.53132 4.57695V4.61759C0.53132 6.20653 1.49441 7.53165 2.77606 7.83345C2.54112 7.9074 2.2931 7.94738 2.03881 7.94738C1.86019 7.94738 1.68896 7.92739 1.51773 7.89008C1.87669 9.19121 2.90861 10.1399 4.13679 10.1666C3.18109 11.0453 1.96998 11.569 0.665572 11.569C0.443715 11.569 0.222426 11.5536 0 11.5243C1.24525 12.453 2.71235 12.996 4.29891 12.996C9.44942 12.996 12.2625 8.00201 12.2625 3.67822C12.2625 3.53898 12.2625 3.3984 12.2539 3.2585C12.8006 2.79947 13.2779 2.21919 13.6533 1.56096L13.6266 1.54764Z" fill="white"/>
</svg>
